<svg xmlns="http://www.w3.org/2000/svg" width="47" height="47" viewBox="0 0 47 47" fill="none">
  <path d="M43.8667 21.1199C44.0744 21.1199 44.2737 21.0391 44.4206 20.8953C44.5675 20.7515 44.65 20.5565 44.65 20.3531V15.6451C45.3884 15.4585 46.0319 15.0147 46.46 14.3968C46.888 13.779 47.0711 13.0295 46.975 12.2889C46.8789 11.5484 46.5102 10.8676 45.938 10.3741C45.3657 9.88058 44.6293 9.60832 43.8667 9.60832C43.104 9.60832 42.3676 9.88058 41.7953 10.3741C41.2231 10.8676 40.8544 11.5484 40.7583 12.2889C40.6622 13.0295 40.8453 13.779 41.2734 14.3968C41.7014 15.0147 42.3449 15.4585 43.0833 15.6451V19.5863H29.7667V17.286H27.4167V4.25087H31.443C31.6337 4.97367 32.0871 5.6036 32.7183 6.02257C33.3495 6.44155 34.1151 6.6208 34.8716 6.52674C35.6282 6.43268 36.3237 6.07175 36.8279 5.51162C37.332 4.95149 37.6102 4.2306 37.6102 3.48409C37.6102 2.73758 37.332 2.0167 36.8279 1.45657C36.3237 0.896433 35.6282 0.535509 34.8716 0.441445C34.1151 0.347382 33.3495 0.526637 32.7183 0.945612C32.0871 1.36459 31.6337 1.99451 31.443 2.71732H26.6333C26.4256 2.71732 26.2263 2.7981 26.0794 2.9419C25.9325 3.0857 25.85 3.28073 25.85 3.48409V17.286H24.2833V9.61828H22.7167V17.286H21.15V3.48409C21.15 3.28073 21.0675 3.0857 20.9206 2.9419C20.7737 2.7981 20.5744 2.71732 20.3667 2.71732H15.557C15.3663 1.99451 14.9129 1.36459 14.2817 0.945612C13.6505 0.526637 12.8849 0.347382 12.1284 0.441445C11.3718 0.535509 10.6763 0.896433 10.1721 1.45657C9.66797 2.0167 9.38983 2.73758 9.38983 3.48409C9.38983 4.2306 9.66797 4.95149 10.1721 5.51162C10.6763 6.07175 11.3718 6.43268 12.1284 6.52674C12.8849 6.6208 13.6505 6.44155 14.2817 6.02257C14.9129 5.6036 15.3663 4.97367 15.557 4.25087H19.5833V17.286H17.2333V19.5863H3.91667V15.6451C4.65509 15.4585 5.29862 15.0147 5.72664 14.3968C6.15467 13.779 6.33779 13.0295 6.2417 12.2889C6.1456 11.5484 5.77688 10.8676 5.20465 10.3741C4.63243 9.88058 3.89597 9.60832 3.13334 9.60832C2.37071 9.60832 1.63425 9.88058 1.06203 10.3741C0.489796 10.8676 0.121076 11.5484 0.0249812 12.2889C-0.0711137 13.0295 0.112013 13.779 0.540036 14.3968C0.968059 15.0147 1.61159 15.4585 2.35001 15.6451V20.3531C2.35001 20.5565 2.43254 20.7515 2.57944 20.8953C2.72634 21.0391 2.92559 21.1199 3.13334 21.1199H17.2333V22.6534H9.4V24.187H17.2333V25.7205H3.13334C2.92559 25.7205 2.72634 25.8013 2.57944 25.9451C2.43254 26.0889 2.35001 26.2839 2.35001 26.4873V31.1953C1.61159 31.3819 0.968059 31.8257 0.540036 32.4436C0.112013 33.0614 -0.0711137 33.8109 0.0249812 34.5514C0.121076 35.292 0.489796 35.9728 1.06203 36.4663C1.63425 36.9598 2.37071 37.2321 3.13334 37.2321C3.89597 37.2321 4.63243 36.9598 5.20465 36.4663C5.77688 35.9728 6.1456 35.292 6.2417 34.5514C6.33779 33.8109 6.15467 33.0614 5.72664 32.4436C5.29862 31.8257 4.65509 31.3819 3.91667 31.1953V27.2541H17.2333V29.5544H19.5833V42.5895H15.557C15.3663 41.8667 14.9129 41.2368 14.2817 40.8178C13.6505 40.3988 12.8849 40.2196 12.1284 40.3137C11.3718 40.4077 10.6763 40.7686 10.1721 41.3288C9.66797 41.8889 9.38983 42.6098 9.38983 43.3563C9.38983 44.1028 9.66797 44.8237 10.1721 45.3838C10.6763 45.944 11.3718 46.3049 12.1284 46.399C12.8849 46.493 13.6505 46.3138 14.2817 45.8948C14.9129 45.4758 15.3663 44.8459 15.557 44.1231H20.3667C20.5744 44.1231 20.7737 44.0423 20.9206 43.8985C21.0675 43.7547 21.15 43.5597 21.15 43.3563V29.5544H22.7167V37.2221H24.2833V29.5544H25.85V43.3563C25.85 43.5597 25.9325 43.7547 26.0794 43.8985C26.2263 44.0423 26.4256 44.1231 26.6333 44.1231H31.443C31.6337 44.8459 32.0871 45.4758 32.7183 45.8948C33.3495 46.3138 34.1151 46.493 34.8716 46.399C35.6282 46.3049 36.3237 45.944 36.8279 45.3838C37.332 44.8237 37.6102 44.1028 37.6102 43.3563C37.6102 42.6098 37.332 41.8889 36.8279 41.3288C36.3237 40.7686 35.6282 40.4077 34.8716 40.3137C34.1151 40.2196 33.3495 40.3988 32.7183 40.8178C32.0871 41.2368 31.6337 41.8667 31.443 42.5895H27.4167V29.5544H29.7667V27.2541H43.0833V31.1953C42.3449 31.3819 41.7014 31.8257 41.2734 32.4436C40.8453 33.0614 40.6622 33.8109 40.7583 34.5514C40.8544 35.292 41.2231 35.9728 41.7953 36.4663C42.3676 36.9598 43.104 37.2321 43.8667 37.2321C44.6293 37.2321 45.3657 36.9598 45.938 36.4663C46.5102 35.9728 46.8789 35.292 46.975 34.5514C47.0711 33.8109 46.888 33.0614 46.46 32.4436C46.0319 31.8257 45.3884 31.3819 44.65 31.1953V26.4873C44.65 26.2839 44.5675 26.0889 44.4206 25.9451C44.2737 25.8013 44.0744 25.7205 43.8667 25.7205H29.7667V24.187H37.6V22.6534H29.7667V21.1199H43.8667ZM24.2833 27.2541H19.5833V25.7205H24.2833V27.2541ZM21.9333 24.187C21.4685 24.187 21.0142 24.0521 20.6277 23.7993C20.2413 23.5465 19.9401 23.1873 19.7622 22.7669C19.5844 22.3466 19.5378 21.8841 19.6285 21.4379C19.7192 20.9917 19.943 20.5818 20.2716 20.2601C20.6003 19.9384 21.019 19.7193 21.4749 19.6305C21.9307 19.5418 22.4032 19.5873 22.8326 19.7614C23.262 19.9355 23.6291 20.2304 23.8873 20.6087C24.1455 20.9869 24.2833 21.4317 24.2833 21.8866C24.2833 22.4967 24.0357 23.0818 23.595 23.5132C23.1543 23.9446 22.5566 24.187 21.9333 24.187ZM27.4167 24.187H25.85V19.5863H27.4167V24.187Z" fill="white"/>
</svg>