<svg width="627" height="438" viewBox="0 0 627 438" fill="none" xmlns="http://www.w3.org/2000/svg">
<circle cx="290.5" cy="219.251" r="218.5" fill="#270F5B"/>
<path d="M8 28.751H1.344V18.031H2.112V28.063H8V28.751ZM10.4051 19.663H9.63713V18.031H10.4051V19.663ZM10.4051 28.751H9.63713V21.103H10.4051V28.751ZM15.5458 28.911C13.4978 28.911 12.3138 27.327 12.3138 24.927C12.3138 22.511 13.4978 20.927 15.5458 20.927C17.0178 20.927 17.9298 21.983 18.1538 23.215V21.103H18.9218V31.727H18.1538V26.623C17.9298 27.871 17.0178 28.911 15.5458 28.911ZM13.0978 24.927C13.0978 27.215 14.2018 28.255 15.7378 28.255C17.3378 28.255 18.1538 27.055 18.1538 25.775V24.063C18.1538 22.783 17.3378 21.599 15.7378 21.599C14.2018 21.599 13.0978 22.623 13.0978 24.927ZM23.7734 28.911C22.3014 28.911 21.2294 28.015 21.2294 26.143V21.103H21.9974V25.999C21.9974 27.423 22.7174 28.255 24.0454 28.255C25.8374 28.255 26.5414 26.959 26.5414 25.583V21.103H27.3094V28.751H26.5414V26.447C26.3334 27.791 25.4374 28.911 23.7734 28.911ZM30.452 19.663H29.684V18.031H30.452V19.663ZM30.452 28.751H29.684V21.103H30.452V28.751ZM35.5926 28.927C33.5446 28.927 32.3606 27.343 32.3606 24.927C32.3606 22.527 33.5446 20.943 35.5926 20.943C37.0646 20.943 37.9766 21.983 38.2006 23.231V18.031H38.9686V28.751H38.2006V26.639C37.9766 27.871 37.0646 28.927 35.5926 28.927ZM33.1446 24.927C33.1446 27.231 34.2486 28.255 35.7846 28.255C37.3846 28.255 38.2006 27.071 38.2006 25.791V24.079C38.2006 22.799 37.3846 21.599 35.7846 21.599C34.2486 21.599 33.1446 22.639 33.1446 24.927ZM42.1083 19.663H41.3403V18.031H42.1083V19.663ZM42.1083 28.751H41.3403V21.103H42.1083V28.751ZM46.9289 28.911C45.8249 28.911 44.8969 28.255 44.8969 26.831V21.727H43.6329V21.103H44.8969V19.919L45.6649 19.343V21.103H48.2729V21.727H45.6649V26.655C45.6649 27.823 46.3049 28.191 47.0569 28.191C47.7289 28.191 48.3689 27.743 48.6569 27.167L48.9449 27.919C48.6089 28.495 47.8249 28.911 46.9289 28.911ZM50.5111 31.583C49.5191 31.583 48.8791 30.927 48.6391 30.415L49.0871 29.855C49.3911 30.479 49.8391 30.895 50.5271 30.895C51.1511 30.895 51.5991 30.543 51.9831 29.583L52.3671 28.607L51.9991 28.639L49.0071 21.103H49.8391L51.9991 26.623L52.5431 28.127L53.1031 26.623L55.2311 21.103H56.0631L52.5911 29.871C52.1751 30.959 51.5191 31.583 50.5111 31.583Z" fill="white"/>
<path d="M582.152 351.128C580.28 351.128 578.424 350.312 577.752 348.328L578.344 347.816C578.904 349.72 580.68 350.408 582.152 350.408C583.544 350.408 584.808 349.848 584.808 348.328C584.808 347.032 583.992 346.472 582.184 346.056L580.92 345.768C579.352 345.416 578.04 344.744 578.04 342.952C578.04 341.112 579.64 340.152 581.4 340.152C583.4 340.152 584.824 341.048 585.416 342.664L584.776 343.192C584.28 341.656 583.096 340.872 581.4 340.872C580.024 340.872 578.856 341.576 578.856 342.904C578.856 344.152 579.64 344.696 581.144 345.048L582.488 345.368C584.232 345.768 585.592 346.456 585.592 348.296C585.592 350.184 584.04 351.128 582.152 351.128ZM589.757 351.16C588.653 351.16 587.725 350.504 587.725 349.08V343.976H586.461V343.352H587.725V342.168L588.493 341.592V343.352H591.101V343.976H588.493V348.904C588.493 350.072 589.133 350.44 589.885 350.44C590.557 350.44 591.197 349.992 591.485 349.416L591.773 350.168C591.437 350.744 590.653 351.16 589.757 351.16ZM594.373 351.16C593.157 351.16 592.453 350.52 592.453 349.512C592.453 348.52 593.189 347.896 594.213 347.432L597.237 346.04L597.221 345.8C597.221 344.52 596.565 343.912 595.349 343.912C594.165 343.912 593.253 344.568 592.837 345.416L592.293 344.872C592.773 344.056 593.877 343.192 595.413 343.192C597.141 343.192 597.989 344.168 597.989 345.784V349.704C597.989 350.152 598.197 350.296 598.597 350.296H599.013V351H598.437C597.685 351 597.237 350.696 597.237 349.816V348.824C596.965 350.008 595.845 351.16 594.373 351.16ZM593.237 349.416C593.237 350.136 593.781 350.504 594.565 350.504C596.101 350.504 597.237 349.208 597.237 348.232V346.648L594.565 347.912C593.653 348.344 593.237 348.76 593.237 349.416ZM601.577 351H600.809V340.28H601.577V346.408L601.545 347.256L602.441 346.392L605.769 343.352H606.761L603.721 346.136L606.825 351H605.881L603.177 346.6L601.577 348.088V351ZM609.124 341.912H608.356V340.28H609.124V341.912ZM609.124 351H608.356V343.352H609.124V351ZM612.265 351H611.497V343.352H612.265V345.64C612.489 344.312 613.401 343.192 615.001 343.192C616.505 343.192 617.577 344.088 617.577 345.96V351H616.809V346.104C616.809 344.664 616.089 343.848 614.729 343.848C613.017 343.848 612.265 345.144 612.265 346.52V351ZM622.737 348.632C622.129 348.632 621.585 348.488 621.137 348.248C620.849 348.584 620.593 349 620.593 349.384C620.593 349.848 620.865 350.12 621.729 350.12H624.145C625.441 350.12 626.241 350.648 626.241 351.736C626.241 353.112 624.737 354.136 622.369 354.136C620.465 354.136 619.265 353.464 619.265 352.408C619.265 351.528 620.129 350.968 620.753 350.744C620.193 350.632 619.937 350.248 619.937 349.816C619.937 349.192 620.449 348.552 620.961 348.136C620.257 347.656 619.841 346.872 619.841 345.912C619.841 344.328 620.977 343.192 622.737 343.192C623.329 343.192 623.857 343.32 624.289 343.544L625.057 341.704L625.873 342.024L624.577 343.72C625.249 344.2 625.649 344.984 625.649 345.912C625.649 347.496 624.513 348.632 622.737 348.632ZM622.737 348.008C624.033 348.008 624.897 347.176 624.897 345.912C624.897 344.648 624.033 343.8 622.737 343.8C621.457 343.8 620.593 344.648 620.593 345.912C620.593 347.176 621.457 348.008 622.737 348.008ZM622.369 353.512C624.337 353.512 625.505 352.792 625.505 351.8C625.505 351.112 625.025 350.792 624.017 350.792H620.961C620.449 351.08 619.937 351.592 619.937 352.216C619.937 353.048 620.897 353.512 622.369 353.512Z" fill="white"/>
<path d="M72 23.251H162.5" stroke="#5A15FF"/>
<line x1="567" y1="345.5" x2="394" y2="345.5" stroke="#5A15FF"/>
<line x1="162.5" y1="92.751" x2="162.5" y2="22.751" stroke="#5A15FF"/>
<path d="M289.5 398.751C250.626 398.751 212.815 386.06 181.812 362.608C150.809 339.156 128.31 306.223 117.734 268.816C107.157 231.408 109.081 191.57 123.214 155.356C137.347 119.142 162.916 88.5321 196.035 68.1771C229.154 47.822 268.012 38.8351 306.705 42.5821C345.398 46.329 381.81 62.605 410.408 88.9365C439.006 115.268 458.226 150.216 465.148 188.468C472.069 226.721 466.314 266.188 448.757 300.871L430.438 291.598C445.976 260.904 451.069 225.977 444.944 192.124C438.819 158.271 421.809 127.344 396.501 104.041C371.192 80.7381 338.968 66.3343 304.726 63.0183C270.484 59.7023 236.095 67.6555 206.785 85.6692C177.476 103.683 154.848 130.772 142.341 162.821C129.834 194.869 128.131 230.125 137.491 263.23C146.851 296.334 166.762 325.479 194.199 346.233C221.635 366.988 255.097 378.219 289.5 378.219L289.5 398.751Z" fill="black"/>
<path d="M449.553 299.528C434.78 329.447 411.916 354.627 383.556 372.209C355.196 389.792 322.476 399.073 289.108 399L289.153 378.468C318.683 378.533 347.64 370.319 372.737 354.759C397.835 339.199 418.069 316.916 431.143 290.438L449.553 299.528Z" fill="#5D5AFF"/>
</svg>
